<svg xmlns="http://www.w3.org/2000/svg" xmlns:xlink="http://www.w3.org/1999/xlink" version="1.1" id="Layer_1" x="0px" y="0px" viewBox="0 0 69 53" enable-background="new 0 0 69 53" xml:space="preserve"><g><defs><path id="SVGID_1_" d="M38.6,2.3C35,2.5,31.7,3.7,25.5,15.2L4.1,51.6h55.1c5.1-0.2,7.2-2.9,7.8-5.6c0.5-2.7-0.4-7.9-6.6-15.1    c-13.6-13.2-27.9-1.7-27.9-1.7L7,49.8c0,0,19.6-20.5,25.8-25.6c9-7.4,17.2-4.2,21.8-1c2.5,1.8,4,3.5,4,3.5    C52.4,14.8,41.5,11,33,18.6C23.5,27.2,6.5,49.4,6.5,49.4l9.5-14.2c4.2-5.8,8.8-12.2,12.8-17.8C39,3.2,49.3,12.1,51.3,14.2    C49,10.3,45.7,2.3,39,2.3C38.9,2.3,38.7,2.3,38.6,2.3"/></defs><linearGradient id="SVGID_2_" gradientUnits="userSpaceOnUse" x1="18.8403" y1="44.669" x2="44.5501" y2="29.6353"><stop offset="0" style="stop-color:#FB23D9"/><stop offset="0.1092" style="stop-color:#F01FDE"/><stop offset="0.2993" style="stop-color:#D413EB"/><stop offset="0.5397" style="stop-color:#A700FF"/><stop offset="0.5612" style="stop-color:#9E11FF"/><stop offset="0.6478" style="stop-color:#7B53FE"/><stop offset="0.7302" style="stop-color:#5E8AFD"/><stop offset="0.8062" style="stop-color:#47B4FD"/><stop offset="0.8744" style="stop-color:#36D3FC"/><stop offset="0.9323" style="stop-color:#2DE5FC"/><stop offset="0.9731" style="stop-color:#29ECFC"/></linearGradient><use xlink:href="#SVGID_1_" overflow="visible" fill="url(#SVGID_2_)"/><clipPath id="SVGID_3_"><use xlink:href="#SVGID_1_" overflow="visible"/></clipPath><linearGradient id="SVGID_4_" gradientUnits="userSpaceOnUse" x1="-0.5848" y1="40.0112" x2="50.1856" y2="10.3235"><stop offset="0" style="stop-color:#FB23D9"/><stop offset="0.164" style="stop-color:#DA15E8"/><stop offset="0.3724" style="stop-color:#B506F9"/><stop offset="0.4832" style="stop-color:#A700FF"/><stop offset="0.5533" style="stop-color:#9228FE"/><stop offset="0.7068" style="stop-color:#657BFD"/><stop offset="0.8328" style="stop-color:#45B8FD"/><stop offset="0.9248" style="stop-color:#31DEFC"/><stop offset="0.9731" style="stop-color:#29ECFC"/></linearGradient><rect x="-30.2" y="-0.1" clip-path="url(#SVGID_3_)" fill="url(#SVGID_4_)" width="105.7" height="53"/></g></svg>